<?xml version="1.0" encoding="UTF-8" standalone="no"?>
<svg
   width="864.00pt"
   height="504.00pt"
   viewBox="0 0 864.00 504.00"
   version="1.1"
   id="svg70"
   sodipodi:docname="assays-bubbles.svg"
   inkscape:version="1.4.2 (f4327f4, 2025-05-13)"
   xmlns:inkscape="http://www.inkscape.org/namespaces/inkscape"
   xmlns:sodipodi="http://sodipodi.sourceforge.net/DTD/sodipodi-0.dtd"
   xmlns="http://www.w3.org/2000/svg"
   xmlns:svg="http://www.w3.org/2000/svg">
  <defs
     id="defs70">
    <defs
       id="defs1">
      <style
         type="text/css"
         id="style1"><![CDATA[
    .svglite line, .svglite polyline, .svglite polygon, .svglite path, .svglite rect, .svglite circle {
      fill: none;
      stroke: #000000;
      stroke-linecap: round;
      stroke-linejoin: round;
      stroke-miterlimit: 10.00;
    }
    .svglite text {
      white-space: pre;
    }
    .svglite g.glyphgroup path {
      fill: inherit;
      stroke: none;
    }
  ]]></style>
    </defs>
    <defs
       id="defs2">
      <clipPath
         id="cpMC4wMHw4NjQuMDB8MC4wMHw1MDQuMDA=">
        <rect
           x="0.00"
           y="0.00"
           width="864.00"
           height="504.00"
           id="rect2" />
      </clipPath>
    </defs>
    <defs
       id="defs3">
      <clipPath
         id="cpOTguODN8NzY1LjE3fDAuMDB8NTA0LjAw">
        <rect
           x="98.83"
           y="0.00"
           width="666.35"
           height="504.00"
           id="rect3" />
      </clipPath>
    </defs>
    <defs
       id="defs5" />
  </defs>
  <sodipodi:namedview
     id="namedview70"
     pagecolor="#ffffff"
     bordercolor="#000000"
     borderopacity="0.25"
     inkscape:showpageshadow="2"
     inkscape:pageopacity="0.0"
     inkscape:pagecheckerboard="0"
     inkscape:deskcolor="#d1d1d1"
     inkscape:document-units="pt"
     inkscape:zoom="0.84915948"
     inkscape:cx="522.28116"
     inkscape:cy="252.60273"
     inkscape:window-width="1920"
     inkscape:window-height="1009"
     inkscape:window-x="-8"
     inkscape:window-y="-8"
     inkscape:window-maximized="1"
     inkscape:current-layer="svg70" />
  <rect
     width="100%"
     height="100%"
     style="fill:none;stroke:none"
     id="rect1"
     x="0"
     y="0" />
  <g
     clip-path="url(#cpMC4wMHw4NjQuMDB8MC4wMHw1MDQuMDA=)"
     id="g2" />
  <g
     clip-path="url(#cpMC4wMHw4NjQuMDB8MC4wMHw1MDQuMDA=)"
     id="g5" />
  <polygon
     points="380.44,253.53 378.23,247.54 375.56,241.74 372.44,236.17 368.89,230.86 364.94,225.84 360.6,221.15 355.91,216.82 350.9,212.86 345.59,209.32 340.02,206.2 334.22,203.52 328.23,201.31 322.08,199.58 315.82,198.33 309.48,197.58 303.1,197.33 296.72,197.58 290.37,198.33 284.11,199.58 277.96,201.31 271.97,203.52 266.17,206.2 260.6,209.32 255.29,212.86 250.28,216.82 245.59,221.15 241.25,225.84 237.3,230.86 233.75,236.17 230.63,241.74 227.96,247.54 225.75,253.53 224.02,259.67 222.77,265.94 222.02,272.28 221.77,278.66 222.02,285.04 222.77,291.38 224.02,297.64 225.75,303.79 227.96,309.78 230.63,315.58 233.75,321.15 237.3,326.46 241.25,331.48 245.59,336.17 250.28,340.5 255.29,344.45 260.6,348 266.17,351.12 271.97,353.79 277.96,356 284.11,357.74 290.37,358.98 296.72,359.73 303.1,359.99 309.48,359.73 315.82,358.98 322.08,357.74 328.23,356 334.22,353.79 340.02,351.12 345.59,348 350.9,344.45 355.91,340.5 360.6,336.17 364.94,331.48 368.89,326.46 372.44,321.15 375.56,315.58 378.23,309.78 380.44,303.79 382.17,297.64 383.42,291.38 384.17,285.04 384.42,278.66 384.17,272.28 383.42,265.94 382.17,259.67 "
     style="fill:#1b9e77;fill-opacity:0.95;stroke:#ffffff;stroke-width:1.28;stroke-linecap:butt"
     id="polygon6" />
  <polygon
     points="491.84,261.65 490.35,257.59 488.54,253.66 486.42,249.89 484.02,246.3 481.35,242.9 478.41,239.73 475.24,236.79 471.84,234.12 468.25,231.71 464.48,229.6 460.55,227.79 456.49,226.3 452.33,225.12 448.09,224.28 443.8,223.77 439.48,223.6 435.16,223.77 430.87,224.28 426.63,225.12 422.47,226.3 418.41,227.79 414.48,229.6 410.71,231.71 407.12,234.12 403.72,236.79 400.55,239.73 397.61,242.9 394.94,246.3 392.54,249.89 390.42,253.66 388.61,257.59 387.12,261.65 385.94,265.81 385.1,270.05 384.59,274.34 384.42,278.66 384.59,282.98 385.1,287.27 385.94,291.51 387.12,295.67 388.61,299.73 390.42,303.66 392.54,307.43 394.94,311.02 397.61,314.42 400.55,317.59 403.72,320.53 407.12,323.2 410.71,325.6 414.48,327.72 418.41,329.53 422.47,331.02 426.63,332.2 430.87,333.04 435.16,333.55 439.48,333.72 443.8,333.55 448.09,333.04 452.33,332.2 456.49,331.02 460.55,329.53 464.48,327.72 468.25,325.6 471.84,323.2 475.24,320.53 478.41,317.59 481.35,314.42 484.02,311.02 486.42,307.43 488.54,303.66 490.35,299.73 491.84,295.67 493.02,291.51 493.86,287.27 494.37,282.98 494.54,278.66 494.37,274.34 493.86,270.05 493.02,265.81 "
     style="fill:#e7298a;fill-opacity:0.95;stroke:#ffffff;stroke-width:1.28;stroke-linecap:butt"
     id="polygon7" />
  <polygon
     points="455.46,368.42 453.77,363.85 451.73,359.42 449.35,355.16 446.64,351.11 443.62,347.28 440.31,343.7 436.73,340.39 432.89,337.37 428.84,334.66 424.58,332.27 420.16,330.23 415.58,328.54 410.89,327.22 406.1,326.27 401.26,325.7 396.39,325.5 391.51,325.7 386.67,326.27 381.89,327.22 377.19,328.54 372.62,330.23 368.19,332.27 363.93,334.66 359.88,337.37 356.05,340.39 352.46,343.7 349.15,347.28 346.13,351.11 343.42,355.16 341.04,359.42 339,363.85 337.31,368.42 335.99,373.12 335.04,377.9 334.46,382.74 334.27,387.62 334.46,392.49 335.04,397.34 335.99,402.12 337.31,406.81 339,411.39 341.04,415.82 343.42,420.07 346.13,424.13 349.15,427.96 352.46,431.54 356.05,434.85 359.88,437.87 363.93,440.58 368.19,442.96 372.62,445 377.19,446.69 381.89,448.02 386.67,448.97 391.51,449.54 396.39,449.73 401.26,449.54 406.1,448.97 410.89,448.02 415.58,446.69 420.16,445 424.58,442.96 428.84,440.58 432.89,437.87 436.73,434.85 440.31,431.54 443.62,427.96 446.64,424.13 449.35,420.07 451.73,415.82 453.77,411.39 455.46,406.81 456.78,402.12 457.73,397.34 458.31,392.49 458.5,387.62 458.31,382.74 457.73,377.9 456.78,373.12 "
     style="fill:#7570b3;fill-opacity:0.95;stroke:#ffffff;stroke-width:1.28;stroke-linecap:butt"
     id="polygon8" />
  <polygon
     points="426.87,188.44 425.87,185.7 424.65,183.06 423.22,180.51 421.6,178.09 419.8,175.8 417.82,173.66 415.68,171.68 413.39,169.88 410.97,168.26 408.42,166.83 405.78,165.61 403.04,164.61 400.24,163.81 397.38,163.25 394.48,162.9 391.57,162.79 388.66,162.9 385.76,163.25 382.91,163.81 380.1,164.61 377.37,165.61 374.72,166.83 372.18,168.26 369.75,169.88 367.46,171.68 365.32,173.66 363.35,175.8 361.54,178.09 359.92,180.51 358.5,183.06 357.28,185.7 356.27,188.44 355.48,191.24 354.91,194.1 354.57,197 354.45,199.91 354.57,202.82 354.91,205.72 355.48,208.57 356.27,211.38 357.28,214.11 358.5,216.76 359.92,219.3 361.54,221.73 363.35,224.02 365.32,226.16 367.46,228.14 369.75,229.94 372.18,231.56 374.72,232.98 377.37,234.2 380.1,235.21 382.91,236 385.76,236.57 388.66,236.91 391.57,237.03 394.48,236.91 397.38,236.57 400.24,236 403.04,235.21 405.78,234.2 408.42,232.98 410.97,231.56 413.39,229.94 415.68,228.14 417.82,226.16 419.8,224.02 421.6,221.73 423.22,219.3 424.65,216.76 425.87,214.11 426.87,211.38 427.67,208.57 428.23,205.72 428.58,202.82 428.69,199.91 428.58,197 428.23,194.1 427.67,191.24 "
     style="fill:#7570b3;fill-opacity:0.95;stroke:#ffffff;stroke-width:1.28;stroke-linecap:butt"
     id="polygon9" />
  <polygon
     points="500.47,178.66 499.46,175.93 498.24,173.28 496.82,170.74 495.2,168.31 493.39,166.02 491.41,163.88 489.27,161.91 486.98,160.1 484.56,158.48 482.02,157.06 479.37,155.84 476.64,154.83 473.83,154.04 470.97,153.47 468.08,153.13 465.17,153.01 462.25,153.13 459.36,153.47 456.5,154.04 453.69,154.83 450.96,155.84 448.31,157.06 445.77,158.48 443.35,160.1 441.06,161.91 438.92,163.88 436.94,166.02 435.13,168.31 433.51,170.74 432.09,173.28 430.87,175.93 429.86,178.66 429.07,181.47 428.5,184.32 428.16,187.22 428.04,190.13 428.16,193.04 428.5,195.94 429.07,198.8 429.86,201.6 430.87,204.34 432.09,206.98 433.51,209.53 435.13,211.95 436.94,214.24 438.92,216.38 441.06,218.36 443.35,220.16 445.77,221.78 448.31,223.21 450.96,224.43 453.69,225.44 456.5,226.23 459.36,226.79 462.25,227.14 465.17,227.25 468.08,227.14 470.97,226.79 473.83,226.23 476.64,225.44 479.37,224.43 482.02,223.21 484.56,221.78 486.98,220.16 489.27,218.36 491.41,216.38 493.39,214.24 495.2,211.95 496.82,209.53 498.24,206.98 499.46,204.34 500.47,201.6 501.26,198.8 501.83,195.94 502.17,193.04 502.29,190.13 502.17,187.22 501.83,184.32 501.26,181.47 "
     style="fill:#7570b3;fill-opacity:0.95;stroke:#ffffff;stroke-width:1.28;stroke-linecap:butt"
     id="polygon10" />
  <polygon
     points="539.28,227.64 538.49,225.52 537.55,223.47 536.45,221.5 535.19,219.62 533.79,217.85 532.26,216.19 530.6,214.66 528.83,213.26 526.95,212.01 524.98,210.91 522.93,209.96 520.82,209.18 518.64,208.57 516.43,208.13 514.19,207.86 511.93,207.77 509.67,207.86 507.43,208.13 505.22,208.57 503.04,209.18 500.93,209.96 498.88,210.91 496.91,212.01 495.03,213.26 493.26,214.66 491.6,216.19 490.07,217.85 488.67,219.62 487.41,221.5 486.31,223.47 485.37,225.52 484.58,227.64 483.97,229.81 483.53,232.03 483.27,234.27 483.18,236.52 483.27,238.78 483.53,241.02 483.97,243.24 484.58,245.41 485.37,247.53 486.31,249.58 487.41,251.55 488.67,253.43 490.07,255.2 491.6,256.86 493.26,258.39 495.03,259.79 496.91,261.04 498.88,262.14 500.93,263.09 503.04,263.87 505.22,264.48 507.43,264.92 509.67,265.19 511.93,265.28 514.19,265.19 516.43,264.92 518.64,264.48 520.82,263.87 522.93,263.09 524.98,262.14 526.95,261.04 528.83,259.79 530.6,258.39 532.26,256.86 533.79,255.2 535.19,253.43 536.45,251.55 537.55,249.58 538.49,247.53 539.28,245.41 539.89,243.24 540.33,241.02 540.59,238.78 540.68,236.52 540.59,234.27 540.33,232.03 539.89,229.81 "
     style="fill:#7570b3;fill-opacity:0.95;stroke:#ffffff;stroke-width:1.28;stroke-linecap:butt"
     id="polygon11" />
  <polygon
     points="576.51,291.95 575.32,288.72 573.88,285.59 572.19,282.58 570.28,279.71 568.14,277 565.8,274.47 563.27,272.13 560.56,269.99 557.69,268.08 554.68,266.39 551.55,264.95 548.32,263.75 545,262.82 541.61,262.15 538.19,261.74 534.74,261.6 531.3,261.74 527.87,262.15 524.49,262.82 521.17,263.75 517.94,264.95 514.8,266.39 511.79,268.08 508.93,269.99 506.22,272.13 503.69,274.47 501.35,277 499.21,279.71 497.29,282.58 495.61,285.59 494.17,288.72 492.97,291.95 492.04,295.27 491.36,298.65 490.96,302.08 490.82,305.53 490.96,308.97 491.36,312.4 492.04,315.78 492.97,319.1 494.17,322.33 495.61,325.47 497.29,328.47 499.21,331.34 501.35,334.05 503.69,336.58 506.22,338.92 508.93,341.06 511.79,342.97 514.8,344.66 517.94,346.1 521.17,347.3 524.49,348.23 527.87,348.91 531.3,349.31 534.74,349.45 538.19,349.31 541.61,348.91 545,348.23 548.32,347.3 551.55,346.1 554.68,344.66 557.69,342.97 560.56,341.06 563.27,338.92 565.8,336.58 568.14,334.05 570.28,331.34 572.19,328.47 573.88,325.47 575.32,322.33 576.51,319.1 577.45,315.78 578.12,312.4 578.53,308.97 578.66,305.53 578.53,302.08 578.12,298.65 577.45,295.27 "
     style="fill:#666666;fill-opacity:0.95;stroke:#ffffff;stroke-width:1.28;stroke-linecap:butt"
     id="polygon12" />
  <polygon
     points="544.19,373.63 543,370.4 541.55,367.26 539.87,364.26 537.95,361.39 535.82,358.68 533.48,356.15 530.94,353.81 528.24,351.67 525.37,349.76 522.36,348.07 519.23,346.63 515.99,345.43 512.67,344.5 509.29,343.82 505.87,343.42 502.42,343.28 498.97,343.42 495.55,343.82 492.17,344.5 488.85,345.43 485.61,346.63 482.48,348.07 479.47,349.76 476.6,351.67 473.9,353.81 471.36,356.15 469.02,358.68 466.89,361.39 464.97,364.26 463.29,367.26 461.84,370.4 460.65,373.63 459.71,376.95 459.04,380.33 458.63,383.76 458.5,387.2 458.63,390.65 459.04,394.08 459.71,397.46 460.65,400.78 461.84,404.01 463.29,407.14 464.97,410.15 466.89,413.02 469.02,415.73 471.36,418.26 473.9,420.6 476.6,422.74 479.47,424.65 482.48,426.34 485.61,427.78 488.85,428.98 492.17,429.91 495.55,430.59 498.97,430.99 502.42,431.13 505.87,430.99 509.29,430.59 512.67,429.91 515.99,428.98 519.23,427.78 522.36,426.34 525.37,424.65 528.24,422.74 530.94,420.6 533.48,418.26 535.82,415.73 537.95,413.02 539.87,410.15 541.55,407.14 543,404.01 544.19,400.78 545.13,397.46 545.8,394.08 546.21,390.65 546.34,387.2 546.21,383.76 545.8,380.33 545.13,376.95 "
     style="fill:#e7298a;fill-opacity:0.95;stroke:#ffffff;stroke-width:1.28;stroke-linecap:butt"
     id="polygon13" />
  <polygon
     points="359.08,163.48 358.3,161.37 357.35,159.32 356.25,157.35 354.99,155.47 353.6,153.7 352.06,152.04 350.4,150.51 348.63,149.11 346.75,147.85 344.78,146.75 342.73,145.81 340.62,145.02 338.44,144.41 336.23,143.97 333.99,143.71 331.73,143.62 329.48,143.71 327.23,143.97 325.02,144.41 322.85,145.02 320.73,145.81 318.68,146.75 316.71,147.85 314.83,149.11 313.06,150.51 311.4,152.04 309.87,153.7 308.47,155.47 307.21,157.35 306.11,159.32 305.17,161.37 304.39,163.48 303.77,165.66 303.33,167.87 303.07,170.11 302.98,172.37 303.07,174.63 303.33,176.87 303.77,179.08 304.39,181.25 305.17,183.37 306.11,185.42 307.21,187.39 308.47,189.27 309.87,191.04 311.4,192.7 313.06,194.23 314.83,195.63 316.71,196.89 318.68,197.99 320.73,198.93 322.85,199.72 325.02,200.33 327.23,200.77 329.48,201.03 331.73,201.12 333.99,201.03 336.23,200.77 338.44,200.33 340.62,199.72 342.73,198.93 344.78,197.99 346.75,196.89 348.63,195.63 350.4,194.23 352.06,192.7 353.6,191.04 354.99,189.27 356.25,187.39 357.35,185.42 358.3,183.37 359.08,181.25 359.69,179.08 360.13,176.87 360.4,174.63 360.48,172.37 360.4,170.11 360.13,167.87 359.69,165.66 "
     style="fill:#e7298a;fill-opacity:0.95;stroke:#ffffff;stroke-width:1.28;stroke-linecap:butt"
     id="polygon14" />
  <polygon
     points="423.35,105.91 422.16,102.68 420.71,99.55 419.03,96.54 417.11,93.67 414.98,90.96 412.64,88.43 410.1,86.09 407.4,83.95 404.53,82.04 401.52,80.35 398.39,78.91 395.15,77.71 391.83,76.78 388.45,76.11 385.03,75.7 381.58,75.56 378.13,75.7 374.71,76.11 371.33,76.78 368.01,77.71 364.77,78.91 361.64,80.35 358.63,82.04 355.76,83.95 353.06,86.09 350.52,88.43 348.18,90.96 346.05,93.67 344.13,96.54 342.45,99.55 341,102.68 339.81,105.91 338.87,109.23 338.2,112.62 337.79,116.04 337.66,119.49 337.79,122.93 338.2,126.36 338.87,129.74 339.81,133.06 341,136.29 342.45,139.43 344.13,142.43 346.05,145.3 348.18,148.01 350.52,150.54 353.06,152.88 355.76,155.02 358.63,156.94 361.64,158.62 364.77,160.06 368.01,161.26 371.33,162.19 374.71,162.87 378.13,163.27 381.58,163.41 385.03,163.27 388.45,162.87 391.83,162.19 395.15,161.26 398.39,160.06 401.52,158.62 404.53,156.94 407.4,155.02 410.1,152.88 412.64,150.54 414.98,148.01 417.11,145.3 419.03,142.43 420.71,139.43 422.16,136.29 423.35,133.06 424.29,129.74 424.96,126.36 425.37,122.93 425.5,119.49 425.37,116.04 424.96,112.62 424.29,109.23 "
     style="fill:#e7298a;fill-opacity:0.95;stroke:#ffffff;stroke-width:1.28;stroke-linecap:butt"
     id="polygon15" />
  <polygon
     points="521.32,88.27 519.97,84.6 518.33,81.05 516.42,77.63 514.25,74.38 511.83,71.31 509.17,68.44 506.3,65.79 503.23,63.36 499.98,61.19 496.57,59.28 493.01,57.64 489.35,56.29 485.58,55.23 481.75,54.47 477.86,54.01 473.96,53.85 470.05,54.01 466.17,54.47 462.33,55.23 458.57,56.29 454.9,57.64 451.35,59.28 447.93,61.19 444.68,63.36 441.61,65.79 438.74,68.44 436.09,71.31 433.67,74.38 431.49,77.63 429.58,81.05 427.95,84.6 426.59,88.27 425.53,92.03 424.77,95.86 424.31,99.75 424.15,103.66 424.31,107.56 424.77,111.45 425.53,115.28 426.59,119.05 427.95,122.71 429.58,126.27 431.49,129.68 433.67,132.93 436.09,136 438.74,138.87 441.61,141.53 444.68,143.95 447.93,146.12 451.35,148.03 454.9,149.67 458.57,151.02 462.33,152.08 466.17,152.84 470.05,153.3 473.96,153.46 477.86,153.3 481.75,152.84 485.58,152.08 489.35,151.02 493.01,149.67 496.57,148.03 499.98,146.12 503.23,143.95 506.3,141.53 509.17,138.87 511.83,136 514.25,132.93 516.42,129.68 518.33,126.27 519.97,122.71 521.32,119.05 522.38,115.28 523.14,111.45 523.6,107.56 523.76,103.66 523.6,99.75 523.14,95.86 522.38,92.03 "
     style="fill:#e7298a;fill-opacity:0.95;stroke:#ffffff;stroke-width:1.28;stroke-linecap:butt"
     id="polygon16" />
  <polygon
     points="334.77,397.8 333.21,393.56 331.32,389.46 329.11,385.52 326.6,381.77 323.8,378.22 320.74,374.91 317.42,371.84 313.88,369.05 310.12,366.54 306.18,364.33 302.08,362.44 297.85,360.88 293.5,359.65 289.07,358.77 284.59,358.24 280.08,358.06 275.56,358.24 271.08,358.77 266.65,359.65 262.31,360.88 258.07,362.44 253.97,364.33 250.03,366.54 246.28,369.05 242.73,371.84 239.41,374.91 236.35,378.22 233.55,381.77 231.04,385.52 228.84,389.46 226.95,393.56 225.39,397.8 224.16,402.15 223.28,406.57 222.75,411.06 222.57,415.57 222.75,420.08 223.28,424.57 224.16,428.99 225.39,433.34 226.95,437.58 228.84,441.68 231.04,445.62 233.55,449.37 236.35,452.92 239.41,456.23 242.73,459.3 246.28,462.09 250.03,464.6 253.97,466.81 258.07,468.7 262.31,470.26 266.65,471.49 271.08,472.37 275.56,472.9 280.08,473.08 284.59,472.9 289.07,472.37 293.5,471.49 297.85,470.26 302.08,468.7 306.18,466.81 310.12,464.6 313.88,462.09 317.42,459.3 320.74,456.23 323.8,452.92 326.6,449.37 329.11,445.62 331.32,441.68 333.21,437.58 334.77,433.34 335.99,428.99 336.88,424.57 337.41,420.08 337.58,415.57 337.41,411.06 336.88,406.57 335.99,402.15 "
     style="fill:#1b9e77;fill-opacity:0.95;stroke:#ffffff;stroke-width:1.28;stroke-linecap:butt"
     id="polygon17" />
  <polygon
     points="242.19,337.04 240.92,333.58 239.37,330.23 237.57,327.01 235.52,323.95 233.24,321.05 230.74,318.35 228.03,315.84 225.13,313.56 222.07,311.51 218.85,309.71 215.5,308.17 212.05,306.89 208.5,305.89 204.88,305.17 201.22,304.74 197.54,304.59 193.85,304.74 190.19,305.17 186.57,305.89 183.03,306.89 179.57,308.17 176.22,309.71 173,311.51 169.94,313.56 167.04,315.84 164.33,318.35 161.83,321.05 159.55,323.95 157.5,327.01 155.7,330.23 154.16,333.58 152.88,337.04 151.88,340.59 151.16,344.2 150.73,347.86 150.58,351.55 150.73,355.23 151.16,358.89 151.88,362.51 152.88,366.06 154.16,369.52 155.7,372.86 157.5,376.08 159.55,379.15 161.83,382.04 164.33,384.75 167.04,387.25 169.94,389.53 173,391.58 176.22,393.38 179.57,394.93 183.03,396.2 186.57,397.2 190.19,397.92 193.85,398.36 197.54,398.5 201.22,398.36 204.88,397.92 208.5,397.2 212.05,396.2 215.5,394.93 218.85,393.38 222.07,391.58 225.13,389.53 228.03,387.25 230.74,384.75 233.24,382.04 235.52,379.15 237.57,376.08 239.37,372.86 240.92,369.52 242.19,366.06 243.19,362.51 243.91,358.89 244.34,355.23 244.49,351.55 244.34,347.86 243.91,344.2 243.19,340.59 "
     style="fill:#666666;fill-opacity:0.95;stroke:#ffffff;stroke-width:1.28;stroke-linecap:butt"
     id="polygon18" />
  <polygon
     points="220.65,249.04 219.46,245.8 218.02,242.67 216.33,239.66 214.41,236.79 212.28,234.08 209.94,231.55 207.41,229.21 204.7,227.08 201.83,225.16 198.82,223.47 195.69,222.03 192.45,220.84 189.13,219.9 185.75,219.23 182.33,218.82 178.88,218.69 175.44,218.82 172.01,219.23 168.63,219.9 165.31,220.84 162.07,222.03 158.94,223.47 155.93,225.16 153.07,227.08 150.36,229.21 147.82,231.55 145.48,234.08 143.35,236.79 141.43,239.66 139.75,242.67 138.3,245.8 137.11,249.04 136.17,252.36 135.5,255.74 135.1,259.16 134.96,262.61 135.1,266.05 135.5,269.48 136.17,272.86 137.11,276.18 138.3,279.42 139.75,282.55 141.43,285.56 143.35,288.42 145.48,291.13 147.82,293.67 150.36,296.01 153.07,298.14 155.93,300.06 158.94,301.74 162.07,303.19 165.31,304.38 168.63,305.32 172.01,305.99 175.44,306.39 178.88,306.53 182.33,306.39 185.75,305.99 189.13,305.32 192.45,304.38 195.69,303.19 198.82,301.74 201.83,300.06 204.7,298.14 207.41,296.01 209.94,293.67 212.28,291.13 214.41,288.42 216.33,285.56 218.02,282.55 219.46,279.42 220.65,276.18 221.59,272.86 222.26,269.48 222.67,266.05 222.8,262.61 222.67,259.16 222.26,255.74 221.59,252.36 "
     style="fill:#666666;fill-opacity:0.95;stroke:#ffffff;stroke-width:1.28;stroke-linecap:butt"
     id="polygon19" />
  <polygon
     points="256.24,181.87 255.24,179.13 254.02,176.48 252.59,173.94 250.97,171.52 249.17,169.23 247.19,167.09 245.05,165.11 242.76,163.3 240.34,161.69 237.79,160.26 235.15,159.04 232.41,158.03 229.61,157.24 226.75,156.67 223.85,156.33 220.94,156.22 218.03,156.33 215.13,156.67 212.28,157.24 209.47,158.03 206.74,159.04 204.09,160.26 201.55,161.69 199.12,163.3 196.83,165.11 194.69,167.09 192.71,169.23 190.91,171.52 189.29,173.94 187.87,176.48 186.65,179.13 185.64,181.87 184.85,184.67 184.28,187.53 183.94,190.42 183.82,193.34 183.94,196.25 184.28,199.14 184.85,202 185.64,204.81 186.65,207.54 187.87,210.19 189.29,212.73 190.91,215.15 192.71,217.44 194.69,219.58 196.83,221.56 199.12,223.37 201.55,224.99 204.09,226.41 206.74,227.63 209.47,228.64 212.28,229.43 215.13,230 218.03,230.34 220.94,230.46 223.85,230.34 226.75,230 229.61,229.43 232.41,228.64 235.15,227.63 237.79,226.41 240.34,224.99 242.76,223.37 245.05,221.56 247.19,219.58 249.17,217.44 250.97,215.15 252.59,212.73 254.02,210.19 255.24,207.54 256.24,204.81 257.04,202 257.6,199.14 257.95,196.25 258.06,193.34 257.95,190.42 257.6,187.53 257.04,184.67 "
     style="fill:#666666;fill-opacity:0.95;stroke:#ffffff;stroke-width:1.28;stroke-linecap:butt"
     id="polygon20" />
  <polygon
     points="316.32,111.78 315.04,108.32 313.5,104.97 311.7,101.75 309.65,98.69 307.37,95.79 304.87,93.09 302.16,90.58 299.26,88.3 296.2,86.25 292.98,84.45 289.63,82.91 286.17,81.63 282.63,80.63 279.01,79.91 275.35,79.48 271.66,79.33 267.98,79.48 264.32,79.91 260.7,80.63 257.16,81.63 253.7,82.91 250.35,84.45 247.13,86.25 244.07,88.3 241.17,90.58 238.46,93.09 235.96,95.79 233.68,98.69 231.63,101.75 229.83,104.97 228.29,108.32 227.01,111.78 226.01,115.33 225.29,118.94 224.86,122.6 224.71,126.29 224.86,129.97 225.29,133.63 226.01,137.25 227.01,140.8 228.29,144.26 229.83,147.6 231.63,150.82 233.68,153.89 235.96,156.78 238.46,159.49 241.17,161.99 244.07,164.27 247.13,166.32 250.35,168.12 253.7,169.67 257.16,170.94 260.7,171.94 264.32,172.66 267.98,173.1 271.66,173.24 275.35,173.1 279.01,172.66 282.63,171.94 286.17,170.94 289.63,169.67 292.98,168.12 296.2,166.32 299.26,164.27 302.16,161.99 304.87,159.49 307.37,156.78 309.65,153.89 311.7,150.82 313.5,147.6 315.04,144.26 316.32,140.8 317.32,137.25 318.04,133.63 318.47,129.97 318.62,126.29 318.47,122.6 318.04,118.94 317.32,115.33 "
     style="fill:#666666;fill-opacity:0.95;stroke:#ffffff;stroke-width:1.28;stroke-linecap:butt"
     id="polygon21" />
  <text
     x="303.10001"
     y="283.34"
     text-anchor="middle"
     style="font-weight:bold;font-size:13.09px;font-family:Arial;fill:#ffffff"
     textLength="55.220001"
     lengthAdjust="spacingAndGlyphs"
     id="text21">RNA-seq</text>
  <text
     x="439.48001"
     y="283.34"
     text-anchor="middle"
     style="font-weight:bold;font-size:13.09px;font-family:Arial;fill:#ffffff"
     textLength="61.27"
     lengthAdjust="spacingAndGlyphs"
     id="text22">ATAC-seq</text>
  <text
     x="396.39001"
     y="392.29999"
     text-anchor="middle"
     style="font-weight:bold;font-size:13.09px;font-family:Arial;fill:#ffffff"
     textLength="64.610001"
     lengthAdjust="spacingAndGlyphs"
     id="text23">CUT&amp;RUN</text>
  <text
     x="391.57001"
     y="204.59"
     text-anchor="middle"
     style="font-weight:bold;font-size:13.09px;font-family:Arial;fill:#ffffff"
     textLength="58.580002"
     lengthAdjust="spacingAndGlyphs"
     id="text24">CUT&amp;Tag</text>
  <text
     x="465.17001"
     y="194.81"
     text-anchor="middle"
     style="font-weight:bold;font-size:13.09px;font-family:Arial;fill:#ffffff"
     textLength="58.119999"
     lengthAdjust="spacingAndGlyphs"
     id="text25">ChIP-Seq</text>
  <text
     x="511.92999"
     y="241.2"
     text-anchor="middle"
     style="font-weight:bold;font-size:13.09px;font-family:Arial;fill:#ffffff"
     textLength="26.879999"
     lengthAdjust="spacingAndGlyphs"
     id="text26">Hi-C</text>
  <text
     x="534.73999"
     y="310.20999"
     text-anchor="middle"
     style="font-weight:bold;font-size:13.09px;font-family:Arial;fill:#ffffff"
     textLength="31.23"
     lengthAdjust="spacingAndGlyphs"
     id="text27">WGS</text>
  <text
     x="502.42001"
     y="391.88"
     text-anchor="middle"
     style="font-weight:bold;font-size:13.09px;font-family:Arial;fill:#ffffff"
     textLength="47.950001"
     lengthAdjust="spacingAndGlyphs"
     id="text28">EM-Seq</text>
  <text
     x="331.73001"
     y="177.05"
     text-anchor="middle"
     style="font-weight:bold;font-size:13.09px;font-family:Arial;fill:#ffffff"
     textLength="37.029999"
     lengthAdjust="spacingAndGlyphs"
     id="text29">RRBS</text>
  <text
     x="381.57999"
     y="124.17"
     text-anchor="middle"
     style="font-weight:bold;font-size:13.09px;font-family:Arial;fill:#ffffff"
     textLength="40.669998"
     lengthAdjust="spacingAndGlyphs"
     id="text30">WGBS</text>
  <text
     x="473.95999"
     y="108.34"
     text-anchor="middle"
     style="font-weight:bold;font-size:13.09px;font-family:Arial;fill:#ffffff"
     textLength="37.049999"
     lengthAdjust="spacingAndGlyphs"
     id="text31">MAPit</text>
  <text
     x="280.07999"
     y="420.25"
     text-anchor="middle"
     style="font-weight:bold;font-size:13.09px;font-family:Arial;fill:#ffffff"
     textLength="65.449997"
     lengthAdjust="spacingAndGlyphs"
     id="text32">Single-cell</text>
  <text
     x="197.53999"
     y="348.76999"
     text-anchor="middle"
     style="font-weight:bold;font-size:13.09px;font-family:Arial;fill:#ffffff"
     textLength="42.91"
     lengthAdjust="spacingAndGlyphs"
     id="text33">Spatial</text>
  <text
     x="197.53999"
     y="363.69"
     text-anchor="middle"
     style="font-weight:bold;font-size:13.09px;font-family:Arial;fill:#ffffff"
     textLength="37.810001"
     lengthAdjust="spacingAndGlyphs"
     id="text34">omics</text>
  <text
     x="178.88"
     y="259.82999"
     text-anchor="middle"
     style="font-weight:bold;font-size:13.09px;font-family:Arial;fill:#ffffff"
     textLength="49.389999"
     lengthAdjust="spacingAndGlyphs"
     id="text35">CRISPR</text>
  <text
     x="178.88"
     y="274.75"
     text-anchor="middle"
     style="font-weight:bold;font-size:13.09px;font-family:Arial;fill:#ffffff"
     textLength="49.48"
     lengthAdjust="spacingAndGlyphs"
     id="text36">screens</text>
  <text
     x="220.94"
     y="198.02"
     text-anchor="middle"
     style="font-weight:bold;font-size:13.09px;font-family:Arial;fill:#ffffff"
     textLength="87.230003"
     lengthAdjust="spacingAndGlyphs"
     id="text37">Metabolomics</text>
  <text
     x="271.66"
     y="130.97"
     text-anchor="middle"
     style="font-weight:bold;font-size:13.09px;font-family:Arial;fill:#ffffff"
     textLength="71.25"
     lengthAdjust="spacingAndGlyphs"
     id="text38">Proteomics</text>
  <rect
     x="601.22052"
     y="127.82194"
     width="17.107864"
     height="17.107864"
     style="fill:#1b9e77;fill-opacity:0.95;stroke:#ffffff;stroke-width:1.75606;stroke-linecap:butt;stroke-linejoin:miter"
     id="rect54" />
  <rect
     x="601.22052"
     y="167.44313"
     width="17.107864"
     height="17.107864"
     style="fill:#7570b3;fill-opacity:0.95;stroke:#ffffff;stroke-width:1.75606;stroke-linecap:butt;stroke-linejoin:miter"
     id="rect56" />
  <rect
     x="601.22052"
     y="208.63216"
     width="17.107864"
     height="17.107864"
     style="fill:#e7298a;fill-opacity:0.95;stroke:#ffffff;stroke-width:1.75606;stroke-linecap:butt;stroke-linejoin:miter"
     id="rect58" />
  <rect
     x="601.22052"
     y="253.51257"
     width="17.107864"
     height="17.107864"
     style="fill:#666666;fill-opacity:0.95;stroke:#ffffff;stroke-width:1.75606;stroke-linecap:butt;stroke-linejoin:miter"
     id="rect60" />
  <text
     x="634.67999"
     y="43.560001"
     style="font-size:10px;font-family:Arial;fill:#e6e6e6"
     textLength="70.190002"
     lengthAdjust="spacingAndGlyphs"
     id="text60"
     transform="matrix(1.2748234,0,0,1.2748234,-176.81696,83.414238)">Transcriptomics</text>
  <text
     x="634.67999"
     y="57.73"
     style="font-size:10px;font-family:Arial;fill:#e6e6e6"
     textLength="100.61"
     lengthAdjust="spacingAndGlyphs"
     id="text61"
     transform="matrix(1.2748234,0,0,1.2748234,-177.15318,107.7206)">Chromatin Interactions</text>
  <text
     x="634.67999"
     y="71.910004"
     style="font-size:10px;font-family:Arial;fill:#e6e6e6"
     textLength="51.700001"
     lengthAdjust="spacingAndGlyphs"
     id="text62"
     transform="matrix(1.2748234,0,0,1.2748234,-177.52662,129.80267)">Epigenetics</text>
  <text
     x="634.67999"
     y="86.080002"
     style="font-size:10px;font-family:Arial;fill:#e6e6e6"
     textLength="25.02"
     lengthAdjust="spacingAndGlyphs"
     id="text63"
     transform="matrix(1.2748234,0,0,1.2748234,-177.1347,157.18904)">Other</text>
  <text
     x="615.02002"
     y="105.82"
     style="font-size:11px;font-family:Arial"
     textLength="67.940002"
     lengthAdjust="spacingAndGlyphs"
     id="text64"
     transform="translate(-29.565811,182.37881)">Dataset count</text>
  <circle
     cx="609.77448"
     cy="308.63461"
     r="11.07"
     style="fill:#bfbfbf;fill-opacity:0.9;stroke:#bfbfbf;stroke-width:0.71;stroke-opacity:0.9"
     id="circle64" />
  <circle
     cx="609.77448"
     cy="342.99463"
     r="15.51"
     style="fill:#bfbfbf;fill-opacity:0.9;stroke:#bfbfbf;stroke-width:0.71;stroke-opacity:0.9"
     id="circle65" />
  <circle
     cx="609.77448"
     cy="391.58463"
     r="21.780001"
     style="fill:#bfbfbf;fill-opacity:0.9;stroke:#bfbfbf;stroke-width:0.71;stroke-opacity:0.9"
     id="circle66" />
  <text
     x="677.42999"
     y="130.27"
     style="font-size:10px;font-family:Arial;fill:#e6e6e6"
     textLength="5.5599999"
     lengthAdjust="spacingAndGlyphs"
     id="text66"
     transform="translate(-33.715489,181.94462)">5</text>
  <text
     x="677.42999"
     y="164.63"
     style="font-size:10px;font-family:Arial;fill:#e6e6e6"
     textLength="11.12"
     lengthAdjust="spacingAndGlyphs"
     id="text67"
     transform="translate(-33.715489,181.94462)">10</text>
  <text
     x="677.42999"
     y="213.23"
     style="font-size:10px;font-family:Arial;fill:#e6e6e6"
     textLength="11.12"
     lengthAdjust="spacingAndGlyphs"
     id="text68"
     transform="translate(-33.715489,181.94462)">20</text>
  <text
     x="356.81"
     y="19.99"
     text-anchor="middle"
     style="font-weight:bold;font-size:14px;font-family:Arial;fill:#ffffff"
     textLength="354.66"
     lengthAdjust="spacingAndGlyphs"
     id="text69"
     transform="translate(89.205858,6.1825842)">BCB-SR Bioinformatics datasets analyzed since 2023</text>
</svg>
